M48
INCH
T01C0.0150
T02C0.0400
T03C0.1181
T04C0.0600
T05C0.0450
T06C0.0500
T07C0.0300
T08C0.0320
T09C0.1000
%
T01
X-022500Y-010000
X+009750Y+004750
X+009750Y+006000
X+016000Y+003000
X+020250Y+003000
X+018000Y+002500
X+037250Y+005250
X+038500Y+005500
X+019750Y-013250
X+019000Y-009500
X-020602Y+005250
X+034500Y+003000
X+036250Y+001500
X+050500Y+016250
X+038000Y+002750
X+049750Y+014750
X+035250Y+004750
X+012000Y+006000
X-007750Y-012000
X+014250Y+003500
X+014750Y-010000
X-034250Y-018750
X+040000Y+005000
X+056750Y+009500
X+049750Y+004500
X+039000Y+003250
X+011250Y-009000
X+036000Y+003750
X+015750Y+005500
X+035250Y+000250
X+002500Y-012750
X+005750Y-007750
X+005750Y-009500
X+005750Y-010000
X+005750Y-010500
X+010500Y-011750
X-017000Y-001250
X-000250Y-007500
X+041500Y+005000
X+042500Y+001000
X+042500Y+002250
X+040000Y+007000
X+035836Y+016122
X+037548Y+015041
X+041497Y+013252
X+040433Y+015501
X+044685Y+014173
X+052519Y+009527
X+041000Y+000500
X+036518Y+006190
X+033867Y+008134
X+031443Y+007558
X+032750Y+005250
X+031250Y+004750
X+031255Y+001867
X+031653Y-001299
X+017750Y+003500
X+017750Y+005551
X+018750Y+006000
X+019870Y+001961
X+019370Y+001614
X+019372Y-000251
X+010405Y+006110
X+010393Y+004787
X+012440Y+005000
X+014251Y+004527
X+009250Y+006500
X+009250Y-008750
X+012287Y+029712
X+052500Y+018250
X+032997Y+011750
X+018277Y+005250
X+018450Y+006764
X+010250Y-008000
X+010750Y-008000
X+006075Y-006721
X+001837Y-011422
X+006297Y-006177
X-006441Y-010969
X+006500Y-009500
X-019750Y-009250
X-020000Y-010250
X-021413Y-009535
X-020742Y-011412
X-039352Y+004750
X-032024Y+004750
X-026518Y-003697
X-023852Y+005000
X-028244Y+005000
X-015092Y+004997
X-013905Y+004078
X-011500Y+006503
X-005072Y-021182
X+012827Y-019732
X+008827Y-019732
X+004837Y-019742
X+000437Y-019742
X-003582Y-019752
X-007572Y-019732
X-011562Y-019742
X+012750Y-008250
X+007000Y-010000
X+051747Y+000597
X+033232Y+005702
X+031848Y+006752
X+034750Y+003500
X+038977Y+002217
X+038500Y+000750
X+047477Y+006911
X+046750Y+011750
X+056777Y+019497
X+037531Y+040440
X-020848Y-012457
X-021250Y-010250
X+016532Y+006932
X+042001Y-004794
X-016504Y+003069
X+053995Y+002513
X+052242Y+002344
X+007190Y+012810
X+008750Y-009250
X+002132Y+015315
X-023000Y-010500
X-031535Y+000937
X-027353Y-013317
X-021750Y-013250
X-036102Y-000905
X-035433Y-001259
X-034233Y-001186
X-035447Y-012438
X-038188Y-008858
X-032753Y-019429
X-033228Y-004291
X-039252Y-005179
X-040134Y-005844
X-027101Y-024083
X-023070Y-012816
X-029906Y-023004
X+014190Y+012810
X+001218Y+031615
X-020057Y+023697
X+011500Y+007250
X+032517Y+010750
X+046250Y+014750
X+039750Y-001000
X+034750Y+000000
X+050250Y+016750
X+032519Y+003267
X+042716Y-001220
X+047937Y+012250
X-018000Y+004250
X-016496Y+000708
X-018314Y+000701
X+036524Y+010225
X+035424Y+009560
X+026750Y+010250
X+049131Y+001204
X+051267Y+002487
X+007500Y-011000
X+015380Y-010782
X+054750Y+020000
X+020591Y+019094
X-023849Y+024697
X+019930Y+018425
T02
X-020535Y+003357
X-020535Y+002357
X-021535Y+003357
X-021535Y+002357
X-022535Y+003357
X-022535Y+002357
X-023535Y+003357
X-023535Y+002357
X-024535Y+003357
X-024535Y+002357
X-025535Y+003357
X-025535Y+002357
X-026535Y+003357
X-026535Y+002357
X-027535Y+003357
X-027535Y+002357
X-028535Y+003357
X-028535Y+002357
X-029535Y+003357
X-029535Y+002357
X-030535Y+003357
X-030535Y+002357
X-031535Y+003357
X-031535Y+002357
X-032535Y+003357
X-032535Y+002357
X-033535Y+003357
X-033535Y+002357
X-034535Y+003357
X-034535Y+002357
X-035535Y+003357
X-035535Y+002357
X-036535Y+003357
X-036535Y+002357
X-037535Y+003357
X-037535Y+002357
X-038535Y+003357
X-038535Y+002357
X-039535Y+003357
X-039535Y+002357
X-015590Y-018929
X-015590Y-017929
X-015590Y-016929
X-015590Y-015929
X-015590Y-014929
X-015590Y-013929
X-015590Y-012929
X-015590Y-011929
X-015590Y-010929
X-015590Y-009929
X-015590Y-008929
X-015590Y-007929
X-015590Y-006929
X-015590Y-005929
X-015590Y-004929
X-015590Y-003929
X-015590Y-002929
X-015590Y-001929
X-031252Y-021100
X-031252Y-022100
X-032252Y-021100
X-032252Y-022100
X-033252Y-021100
X-033252Y-022100
X-034252Y-021100
X-034252Y-022100
X+029270Y+006170
X+030270Y+006170
X+029270Y+005170
X+030270Y+005170
X+029270Y+004170
X+030270Y+004170
X-012677Y+009724
X-012677Y+010724
X-012677Y+011724
X-012677Y+012724
X-022252Y-021100
X-022252Y-022100
X-023252Y-021100
X-023252Y-022100
X+045620Y+008771
X+045620Y+007771
X+045620Y+006771
X+045620Y+003442
X+045620Y+004442
X+045620Y+005442
X+024606Y+001551
X+024606Y+000551
X+033425Y+000960
X+033425Y-000039
X-049448Y-007858
X-049448Y-008858
X-049528Y-011488
X-049528Y-012488
X+036102Y-000551
X+037992Y-000551
X+032680Y+007490
X+015700Y+008170
X-011072Y+041187
X-011072Y+034101
X+012450Y+008170
X+017310Y+008170
X-020393Y-015767
X-022480Y-015767
X+014070Y+008170
X+009704Y-011507
X+011344Y-011507
X-007922Y+034101
X+041109Y-003678
X+040109Y-003678
X+039109Y-003678
X+038109Y-003678
X+037109Y-003678
X+036109Y-003678
X-007922Y+041187
X+003110Y+033405
X+003110Y+032405
X-024551Y+041989
X-025551Y+041989
X-026551Y+041989
X+022427Y+005154
X+022427Y+006154
X+022427Y+007154
X+024606Y+005157
X+024606Y+006157
X-004719Y+040866
X-003719Y+040866
X-040118Y-003770
X-040118Y-002770
X-039118Y-003770
X-039118Y-002770
X-038118Y-003770
X-038118Y-002770
X-037118Y-003770
X-037118Y-002770
X-049110Y-003754
X-049110Y-002754
X-048110Y-003754
X-048110Y-002754
X+005511Y+033405
X+005511Y+032405
X-028022Y-000160
X-029022Y-000160
X-030022Y-000160
X-031022Y-000160
X-032022Y-000160
X-033022Y-000160
X-034022Y-000160
X-035022Y-000160
X-027992Y+006020
X-028992Y+006020
X-029992Y+006020
X-030992Y+006020
X-031992Y+006020
X-032992Y+006020
X-033992Y+006020
X-034992Y+006020
X+030990Y+011370
X+030990Y+012370
X+030990Y+013370
X+023790Y+011370
X+023790Y+012370
X+023790Y+013370
X+019930Y+011370
X+019930Y+012370
X+019930Y+013370
X+027690Y+011370
X+027690Y+012370
X+027690Y+013370
X-002834Y+036362
X-002834Y+037362
X-040827Y+006277
X-041827Y+006277
X-042827Y+006277
X-043827Y+006277
X-044827Y+006277
X-045827Y+006277
X-046827Y+006277
X-047827Y+006277
X-048827Y+006277
X-049827Y+006277
X-050827Y+006277
X-051827Y+006277
X-052827Y+006277
X-053827Y+006277
X-054827Y+006277
X-040827Y+012183
X-041827Y+012183
X-042827Y+012183
X-043827Y+012183
X-044827Y+012183
X-045827Y+012183
X-046827Y+012183
X-047827Y+012183
X-048827Y+012183
X-049827Y+012183
X-050827Y+012183
X-051827Y+012183
X-052827Y+012183
X-053827Y+012183
X-054827Y+012183
X-040827Y+014008
X-041827Y+014008
X-042827Y+014008
X-043827Y+014008
X-044827Y+014008
X-045827Y+014008
X-046827Y+014008
X-047827Y+014008
X-048827Y+014008
X-049827Y+014008
X-050827Y+014008
X-051827Y+014008
X-052827Y+014008
X-053827Y+014008
X-054827Y+014008
T03
X-049488Y+038489
X-017992Y+038489
X-049488Y+018804
X-017992Y+018804
X-053464Y+042755
X-053464Y-028110
X+056771Y-028110
X+056771Y+042755
X-051377Y-003307
X-051377Y-021614
X-020157Y-003188
X-020275Y-021614
X+038267Y-028110
X+001653Y-028110
X+001653Y+042755
X-006850Y-003897
X+029763Y-003897
X+029763Y+017755
X-006850Y+017755
X+056771Y+017165
X+014407Y+024395
X+044919Y+042663
X-010944Y+015984
X-010944Y+025433
T04
X-001265Y+010928
X-001189Y+000698
X-001189Y+003415
X-053690Y-017904
X-053690Y-015904
X-053690Y-007168
X-053690Y-009168
X-053690Y-011158
X-053690Y-013158
X+049416Y+037161
X+049416Y+035161
X+049416Y+033161
X+049416Y+031161
X+049416Y+029161
X+057178Y+031128
X+057178Y+029128
X+033307Y-024315
X+031307Y-024315
X+029307Y-024315
X+027307Y-024315
X+025307Y-024315
X+023307Y-024315
X+021307Y-024315
X+019307Y-024315
X+051838Y-024315
X+049838Y-024315
X+047838Y-024315
X+045838Y-024315
X+043838Y-024315
X+041838Y-024315
X+039838Y-024315
X+037838Y-024315
X-013566Y-024315
X-011566Y-024315
X-009566Y-024315
X-007566Y-024315
X-005566Y-024315
X-003566Y-024315
X-001566Y-024315
X+000433Y-024315
X+002818Y-024315
X+004818Y-024315
X+006818Y-024315
X+008818Y-024315
X+010818Y-024315
X+012818Y-024315
X+014818Y-024315
X+016818Y-024315
X+049921Y+043700
X-015405Y+042988
X-017405Y+042988
T05
X+007887Y+028309
X+007887Y+026309
X+007966Y+040031
X+007966Y+038031
X+050657Y+025582
X+056484Y+025582
T06
X+051266Y-011677
X+051266Y-012662
X+051227Y-016796
X+051227Y-019788
X+046886Y-011677
X+046886Y-012662
X+046847Y-016796
X+046847Y-019788
X+042813Y-011677
X+042813Y-012662
X+042774Y-016796
X+042774Y-019788
X+038531Y-011677
X+038531Y-012662
X+038491Y-016796
X+038491Y-019788
T07
X+039257Y+007790
X+037257Y+007790
X-042936Y-016318
X-042936Y-015318
X-042936Y-014318
X-042936Y-013318
X-045936Y-013318
X-045936Y-014318
X-045936Y-015318
X-045936Y-016318
X+007090Y+001300
X+007090Y+003300
X+007090Y+002300
X+022427Y+002524
X+022427Y+000524
X+022427Y+001524
T08
X+043144Y+010238
X+042357Y+010632
X+043144Y+011026
X+042357Y+011419
X+000141Y-010314
X-000858Y-010314
X-002858Y-010314
X-003858Y-010314
X-004858Y-010314
X-008391Y-008952
X-009414Y-008952
X-010391Y-008952
X-011391Y-008952
T09
X+053610Y+025582
M30
